<svg enable-background="new 0 0 1024 1024" viewBox="0 0 1024 1024" xmlns="http://www.w3.org/2000/svg"><circle cx="512" cy="512" fill="#607d8b" r="512"/><path d="m512 517.4c-20.1-.2-36.5 15.8-36.7 35.9-.1 10.6 4.4 20.7 12.4 27.7v33.9c0 13.5 10.9 24.4 24.4 24.4s24.4-10.9 24.4-24.4v-33.9c15.1-13.2 16.6-36.2 3.4-51.3-7.2-7.9-17.3-12.4-27.9-12.3zm121.9-97.5v-48.8c0-67.3-54.6-121.9-121.9-121.9s-121.9 54.6-121.9 121.9v48.8c-40.4 0-73.1 32.7-73.1 73.1v170.6c0 40.4 32.7 73.1 73.1 73.1h243.8c40.4 0 73.1-32.7 73.1-73.1v-170.6c0-40.4-32.7-73.1-73.1-73.1zm-195-48.8c0-40.4 32.7-73.1 73.1-73.1s73.1 32.7 73.1 73.1v48.8h-146.2zm219.4 292.5c0 13.5-10.9 24.4-24.4 24.4h-243.8c-13.5 0-24.4-10.9-24.4-24.4v-170.6c0-13.5 10.9-24.4 24.4-24.4h243.8c13.5 0 24.4 10.9 24.4 24.4z" fill="#fff"/></svg>